<svg class="w-6 h-6" width="24" height="24" viewBox="0 0 24 24" fill="none" xmlns="http://www.w3.org/2000/svg"><path d="M8.36915 14.2246C8.76192 13.9043 9.34092 13.9269 9.70704 14.293C10.0732 14.6591 10.0958 15.2381 9.7754 15.6309L9.70704 15.707L5.70704 19.707C5.34093 20.0732 4.76192 20.0958 4.36915 19.7754L4.29298 19.707L2.29298 17.707L2.22462 17.6309C1.90427 17.2381 1.92686 16.6591 2.29298 16.293C2.65909 15.9269 3.2381 15.9043 3.63087 16.2246L3.70704 16.293L5.00001 17.5859L8.29298 14.293L8.36915 14.2246Z" fill="#686583" style="fill-opacity:1;"/><path d="M8.36915 4.22462C8.76192 3.90427 9.34092 3.92686 9.70704 4.29298C10.0732 4.65909 10.0958 5.2381 9.7754 5.63087L9.70704 5.70704L5.70704 9.70704C5.34093 10.0732 4.76192 10.0958 4.36915 9.7754L4.29298 9.70704L2.29298 7.70704L2.22462 7.63087C1.90427 7.2381 1.92686 6.65909 2.29298 6.29298C2.65909 5.92686 3.2381 5.90427 3.63087 6.22462L3.70704 6.29298L5.00001 7.58595L8.29298 4.29298L8.36915 4.22462Z" fill="#686583" style="fill-opacity:1;"/><path d="M21 5C21.5523 5 22 5.44772 22 6C22 6.55228 21.5523 7 21 7H13C12.4477 7 12 6.55228 12 6C12 5.44772 12.4477 5 13 5H21Z" fill="#686583" style="fill-opacity:1;"/><path d="M21 11C21.5523 11 22 11.4477 22 12C22 12.5523 21.5523 13 21 13H13C12.4477 13 12 12.5523 12 12C12 11.4477 12.4477 11 13 11H21Z" fill="#686583" style="fill-opacity:1;"/><path d="M21 17C21.5523 17 22 17.4477 22 18C22 18.5523 21.5523 19 21 19H13C12.4477 19 12 18.5523 12 18C12 17.4477 12.4477 17 13 17H21Z" fill="#686583" style="fill-opacity:1;"/></svg>